<svg width="1039" height="1040" xmlns="http://www.w3.org/2000/svg" xmlns:xlink="http://www.w3.org/1999/xlink" xml:space="preserve" overflow="hidden"><defs><clipPath id="clip0"><rect x="1161" y="594" width="1039" height="1040"/></clipPath></defs><g clip-path="url(#clip0)" transform="translate(-1161 -594)"><path d="M1161 1114C1161 826.812 1393.59 594 1680.5 594 1967.41 594 2200 826.812 2200 1114 2200 1401.19 1967.41 1634 1680.5 1634 1393.59 1634 1161 1401.19 1161 1114Z" fill="#5F249F" fill-rule="evenodd"/><path d="M1801 1088.5C1801 1021.4 1876.66 967 1970 967 2063.34 967 2139 1021.4 2139 1088.5 2139 1155.6 2063.34 1210 1970 1210 1876.66 1210 1801 1155.6 1801 1088.5Z" fill="#FFFFFF" fill-rule="evenodd"/><path d="M1312 1088.5C1312 1021.4 1387.66 967 1481 967 1574.34 967 1650 1021.4 1650 1088.5 1650 1155.6 1574.34 1210 1481 1210 1387.66 1210 1312 1155.6 1312 1088.5Z" fill="#FFFFFF" fill-rule="evenodd"/><path d="M1847 1307.31C1827.25 1243.23 1883.63 1168.98 1972.92 1141.45 2062.21 1113.93 2150.6 1143.56 2170.36 1207.64 2190.11 1271.72 2133.73 1345.97 2044.44 1373.49 1955.15 1401.02 1866.76 1371.38 1847 1307.31Z" fill="#5F249F" fill-rule="evenodd"/><path d="M1206 1253.5C1206 1186.4 1281.89 1132 1375.5 1132 1469.11 1132 1545 1186.4 1545 1253.5 1545 1320.6 1469.11 1375 1375.5 1375 1281.89 1375 1206 1320.6 1206 1253.5Z" fill="#5F249F" fill-rule="evenodd"/><path d="M1840.93 1272.54C1831.91 1328.08 1779.58 1365.8 1724.04 1356.79 1668.5 1347.77 1630.78 1295.44 1639.79 1239.9 1640.43 1235.98 1641.3 1232.09 1642.39 1228.27Z" fill="#D60000" fill-rule="evenodd"/><path d="M1650.22 1284.94C1657.57 1258.74 1697.22 1246.96 1738.78 1258.62 1780.33 1270.28 1808.06 1300.97 1800.71 1327.17 1793.36 1353.37 1753.71 1365.15 1712.15 1353.49 1670.6 1341.83 1642.87 1311.13 1650.22 1284.94Z" fill="#FF0000" fill-rule="evenodd"/></g></svg>