<svg width="330" height="330" xmlns="http://www.w3.org/2000/svg" xmlns:xlink="http://www.w3.org/1999/xlink" xml:space="preserve" overflow="hidden"><defs><clipPath id="clip0"><rect x="1100" y="1073" width="330" height="330"/></clipPath></defs><g clip-path="url(#clip0)" transform="translate(-1100 -1073)"><path d="M1100 1238C1100 1146.87 1173.87 1073 1265 1073 1356.13 1073 1430 1146.87 1430 1238 1430 1329.13 1356.13 1403 1265 1403 1173.87 1403 1100 1329.13 1100 1238Z" fill="#78206E" fill-rule="evenodd"/><path d="M1303 1229.5C1303 1208.24 1327.18 1191 1357 1191 1386.82 1191 1411 1208.24 1411 1229.5 1411 1250.76 1386.82 1268 1357 1268 1327.18 1268 1303 1250.76 1303 1229.5Z" fill="#FFFFFF" fill-rule="evenodd"/><path d="M1148 1229.5C1148 1208.24 1171.95 1191 1201.5 1191 1231.05 1191 1255 1208.24 1255 1229.5 1255 1250.76 1231.05 1268 1201.5 1268 1171.95 1268 1148 1250.76 1148 1229.5Z" fill="#FFFFFF" fill-rule="evenodd"/><path d="M1303 1285.5C1303 1264.24 1327.18 1247 1357 1247 1386.82 1247 1411 1264.24 1411 1285.5 1411 1306.76 1386.82 1324 1357 1324 1327.18 1324 1303 1306.76 1303 1285.5Z" fill="#78206E" fill-rule="evenodd"/><path d="M1148 1285.5C1148 1264.24 1171.95 1247 1201.5 1247 1231.05 1247 1255 1264.24 1255 1285.5 1255 1306.76 1231.05 1324 1201.5 1324 1171.95 1324 1148 1306.76 1148 1285.5Z" fill="#78206E" fill-rule="evenodd"/></g></svg>