<svg width="720" height="720" xmlns="http://www.w3.org/2000/svg" xmlns:xlink="http://www.w3.org/1999/xlink" xml:space="preserve" overflow="hidden"><g transform="translate(-280 0)"><path d="M623.125 162.774C626.74 162.774 628.549 160.664 629.453 157.35 638.794 107.025 638.192 105.821 690.625 95.8757 694.24 95.274 696.35 93.1641 696.35 89.5474 696.35 85.932 694.24 83.8221 690.625 83.2191 638.493 72.6737 640 71.4677 629.453 21.7466 628.549 18.432 626.74 16.3221 623.125 16.3221 619.508 16.3221 617.701 18.432 616.797 21.7466 606.25 71.4677 608.058 72.6737 555.625 83.2191 552.31 83.8221 549.9 85.932 549.9 89.5474 549.9 93.1641 552.31 95.274 555.625 95.8757 608.058 106.424 607.455 107.025 616.797 157.35 617.701 160.664 619.508 162.774 623.125 162.774ZM477.277 370.095C483.003 370.095 486.92 366.479 487.522 361.056 498.371 280.597 501.082 280.597 584.253 264.627 589.677 263.722 593.593 260.106 593.593 254.381 593.593 248.957 589.677 245.039 584.253 244.135 501.082 232.685 498.069 229.972 487.522 148.008 486.92 142.584 483.003 138.667 477.277 138.667 471.853 138.667 467.935 142.584 467.332 148.31 457.389 229.068 453.169 228.767 370.603 244.135 365.179 245.341 361.261 248.957 361.261 254.381 361.261 260.407 365.179 263.722 371.808 264.627 453.772 277.885 457.389 279.995 467.332 360.453 467.935 366.479 471.853 370.095 477.277 370.095ZM681.585 703.678C689.42 703.678 695.146 697.953 696.651 689.817 718.047 524.682 741.25 499.671 904.576 481.59 913.014 480.686 918.739 474.358 918.739 466.524 918.739 458.689 913.014 452.661 904.576 451.457 741.25 433.376 718.047 408.365 696.651 243.231 695.146 235.095 689.42 229.671 681.585 229.671 673.75 229.671 668.025 235.095 666.82 243.231 645.424 408.365 621.92 433.376 458.894 451.457 450.157 452.661 444.431 458.689 444.431 466.524 444.431 474.358 450.157 480.686 458.894 481.59 621.618 502.986 644.218 524.984 666.82 689.817 668.025 697.953 673.75 703.678 681.585 703.678Z" fill="#FFFF00"/></g></svg>